#!OML:ASF E:\Steps\Project 1\Capture day 1\Session 2\Subject.ASF
:FULLY-SPECIFIED
:DEGREES
322
root 12.4617 18.4661 18.9421 -150.826 1.79605 177.282
lowerback -19.0281 -1.98813 -9.12073
upperback 2.66121 -0.137635 -1.39535
thorax 13.8671 -0.654748 3.57798
lowerneck -3.78859 -2.75148 -0.396463
upperneck 22.0304 -3.06923 4.26837
head 7.44123 -0.560342 1.30815
rclavicle -3.18055e-015 1.35174e-014
rhumerus -40.0014 -15.4465 -75.7608
rradius 34.5853
rwrist -1.79157
rhand -10.6316 -411.157
rfingers 7.12502
rthumb -164.625 99.4345
lclavicle -3.18055e-015 1.35174e-014
lhumerus -27.265 -1.46521 79.4654
lradius 31.3927
lwrist 0.820053
lhand -23.7642 -12.5369
lfingers 7.12502
lthumb 2.70511 17.4257
rfemur -44.3951 4.08433 11.5092
rtibia 47.13
rfoot -20.5685 -11.8895
rtoes -26.7179
lfemur -47.1699 -4.96969 -23.0176
ltibia 33.4685
lfoot -12.5606 0.851747
ltoes -40.6668
323
root 12.4361 18.5025 18.9094 -151.015 2.05765 177.311
lowerback -19.0136 -2.02476 -9.3032
upperback 2.65673 -0.148804 -1.3627
thorax 13.8587 -0.675498 3.71487
lowerneck -3.70941 -2.4489 -0.20278
upperneck 22.0047 -2.59239 3.91128
head 7.39859 -0.348113 1.19448
rclavicle -1.98785e-015 -7.95139e-016
rhumerus -40.2813 -15.695 -75.4902
rradius 34.2288
rwrist -1.51984
rhand -10.6435 -410.344
rfingers 7.12502
rthumb -164.636 100.247
lclavicle -1.98785e-015 -7.95139e-016
lhumerus -27.3439 -1.38976 79.4944
lradius 31.7924
lwrist 1.44826
lhand -23.8755 -12.4121
lfingers 7.12502
lthumb 2.59756 17.5518
rfemur -44.7049 4.60081 11.7557
rtibia 47.3411
rfoot -20.9548 -11.7387
rtoes -27.2006
lfemur -46.2474 -4.77246 -23.1844
ltibia 32.3716
lfoot -12.3345 1.04655
ltoes -41.584
324
root 12.4098 18.5384 18.878 -151.163 2.26674 177.282
lowerback -18.8206 -2.08696 -9.45253
upperback 2.51938 -0.225478 -1.35113
thorax 13.5957 -0.705896 3.79267
lowerneck -3.84127 -2.49354 -0.464789
upperneck 22.2443 -2.65581 4.11026
head 7.50897 -0.369739 1.3016
rclavicle 9.54166e-015 -7.15625e-015
rhumerus -40.684 -15.8002 -75.2111
rradius 33.7369
rwrist -1.52835
rhand -10.9503 -409.499
rfingers 7.12502
rthumb -164.932 101.07
lclavicle 9.54166e-015 -7.15625e-015
lhumerus -27.659 -1.22966 79.4797
lradius 32.3526
lwrist 2.1724
lhand -23.9287 -12.2402
lfingers 7.12502
lthumb 2.54627 17.7244
rfemur -45.0329 5.02836 11.9499
rtibia 47.4668
rfoot -21.3451 -11.7954
rtoes -28.5213
lfemur -45.4462 -4.7041 -23.3619
ltibia 31.3977
lfoot -12.0712 1.22451
ltoes -41.7032
325
root 12.3776 18.5692 18.8507 -151.166 2.34688 177.24
lowerback -19.2376 -2.11863 -9.48269
upperback 2.56881 -0.189954 -1.42211
thorax 13.8978 -0.699426 3.73673
lowerneck -3.80275 -2.64866 -0.34361
upperneck 22.3038 -2.88634 4.15614
head 7.52675 -0.461138 1.2799
rclavicle 1.15295e-014 5.56597e-015
rhumerus -40.8852 -16.3105 -74.9993
rradius 33.2823
rwrist -1.4227
rhand -11.1979 -408.986
rfingers 7.12502
rthumb -165.17 101.565
lclavicle 1.15295e-014 5.56597e-015
lhumerus -27.503 -1.33606 79.4341
lradius 32.6941
lwrist 2.64887
lhand -24.0965 -12.1148
lfingers 7.12502
lthumb 2.38414 17.8516
rfemur -45.4221 5.14526 12.1895
rtibia 47.4774
rfoot -21.6125 -11.6631
rtoes -30.0906
lfemur -44.9278 -4.93661 -23.466
ltibia 30.6501
lfoot -11.8931 1.45744
ltoes -41.3567
326
root 12.3458 18.594 18.8187 -151.137 2.62965 177.351
lowerback -19.3416 -2.11795 -9.41522
upperback 2.39269 -0.197448 -1.43362
thorax 13.75 -0.683082 3.68624
lowerneck -4.1028 -2.80022 -0.175521
upperneck 23.0448 -3.01093 3.86565
head 7.82349 -0.489268 1.15344
rclavicle -5.1684e-015 -1.19271e-014
rhumerus -41.4191 -16.4368 -74.719
rradius 33.1101
rwrist -0.71825
rhand -10.7436 -409.143
rfingers 7.12502
rthumb -164.732 101.44
lclavicle -5.1684e-015 -1.19271e-014
lhumerus -27.7333 -1.27857 79.4034
lradius 32.9876
lwrist 2.98168
lhand -24.1528 -12.1116
lfingers 7.12502
lthumb 2.32983 17.8554
rfemur -45.8367 5.52596 12.5093
rtibia 47.5142
rfoot -22.0186 -11.1023
rtoes -29.6556
lfemur -44.3993 -4.90646 -23.5093
ltibia 29.8995
lfoot -11.8157 1.74169
ltoes -41.7031
327
root 12.3174 18.6213 18.786 -151.229 2.86043 177.536
lowerback -19.2533 -2.14275 -9.39182
upperback 2.2287 -0.279395 -1.3046
thorax 13.5148 -0.712698 3.79758
lowerneck -3.97221 -2.57568 -0.289857
upperneck 23.0727 -2.65119 3.79345
head 7.80121 -0.329628 1.17912
rclavicle 1.59028e-014 3.4191e-014
rhumerus -41.8326 -16.6748 -74.1971
rradius 32.7134
rwrist 0.180786
rhand -10.5221 -409.173
rfingers 7.12502
rthumb -164.519 101.427
lclavicle 1.59028e-014 3.4191e-014
lhumerus -27.9537 -1.03252 79.5204
lradius 33.189
lwrist 3.3777
lhand -24.3236 -12.2601
lfingers 7.12502
lthumb 2.16483 17.7087
rfemur -46.0669 6.01829 12.8786
rtibia 47.4782
rfoot -22.3937 -10.6829
rtoes -28.9149
lfemur -43.7561 -4.80815 -23.4534
ltibia 29.1647
lfoot -11.7759 2.0965
ltoes -42.4093
328
root 12.2932 18.6536 18.7547 -151.531 2.99086 177.602
lowerback -19.311 -2.17823 -9.30622
upperback 2.33891 -0.329442 -1.34419
thorax 13.6842 -0.737955 3.68603
lowerneck -3.82002 -2.43764 -0.517101
upperneck 22.7819 -2.53262 4.19534
head 7.68205 -0.271882 1.35664
rclavicle -7.15625e-015 3.10104e-014
rhumerus -41.8733 -17.3207 -73.9156
rradius 32.0981
rwrist 0.761422
rhand -10.4166 -409.753
rfingers 7.12502
rthumb -164.418 100.855
lclavicle -7.15625e-015 3.10104e-014
lhumerus -27.7297 -0.9422 79.3982
lradius 33.207
lwrist 3.86026
lhand -24.6568 -12.5725
lfingers 7.12502
lthumb 1.84299 17.3992
rfemur -45.9411 6.51229 13.1377
rtibia 47.1466
rfoot -22.6557 -10.5432
rtoes -29.0576
lfemur -42.822 -4.71119 -23.5316
ltibia 28.2665
lfoot -11.5894 2.30429
ltoes -42.833
329
root 12.2683 18.6786 18.7205 -151.629 3.26037 177.648
lowerback -20.0498 -2.20748 -9.27761
upperback 2.64087 -0.256162 -1.42273
thorax 14.4716 -0.738727 3.59154
lowerneck -3.9428 -2.42388 -0.443471
upperneck 22.5381 -2.5894 4.30335
head 7.62513 -0.303878 1.37006
rclavicle -1.19271e-015 7.95139e-015
rhumerus -41.5758 -17.8356 -73.9016
rradius 31.6274
rwrist 0.992242
rhand -10.0861 -411.757
rfingers 7.12502
rthumb -164.099 98.8759
lclavicle -1.19271e-015 7.95139e-015
lhumerus -27.1199 -0.882356 79.2681
lradius 33.2264
lwrist 4.42941
lhand -24.7719 -12.7315
lfingers 7.12502
lthumb 1.73189 17.2412
rfemur -46.0646 7.09525 13.3019
rtibia 46.7659
rfoot -23.0398 -10.4242
rtoes -29.7233
lfemur -42.1184 -4.54165 -23.6744
ltibia 27.4182
lfoot -11.3659 2.43613
ltoes -42.9894
330
root 12.2407 18.7012 18.6868 -151.656 3.45847 177.646
lowerback -19.8634 -2.2226 -9.39493
upperback 2.31613 -0.280531 -1.41887
thorax 13.9794 -0.725134 3.66328
lowerneck -3.69186 -2.59169 -0.256862
upperneck 22.7206 -2.7674 4.13363
head 7.64047 -0.3708 1.27401
rclavicle 5.56597e-015 5.24792e-014
rhumerus -42.3383 -17.8876 -73.5404
rradius 31.3827
rwrist 1.03691
rhand -10.0702 -413.095
rfingers 7.12502
rthumb -164.084 97.5388
lclavicle 5.56597e-015 5.24792e-014
lhumerus -27.5851 -1.0731 79.3604
lradius 33.4228
lwrist 4.83001
lhand -24.7049 -12.5216
lfingers 7.12502
lthumb 1.79654 17.4506
rfemur -46.2397 7.52512 13.4078
rtibia 46.3249
rfoot -23.3421 -10.3092
rtoes -30.8373
lfemur -41.6027 -4.62875 -23.7836
ltibia 26.7933
lfoot -11.3163 2.71005
ltoes -43.2955
331
root 12.2151 18.723 18.6589 -151.767 3.5534 177.655
lowerback -19.9564 -2.22577 -9.42384
upperback 2.25759 -0.258898 -1.45749
thorax 13.9626 -0.710473 3.64331
lowerneck -3.42942 -2.30953 0.00182831
upperneck 22.6429 -2.33133 3.92547
head 7.55102 -0.15617 1.196
rclavicle -5.56597e-015 -3.26007e-014
rhumerus -42.6521 -18.385 -73.2226
rradius 30.968
rwrist 1.27901
rhand -10.1951 -413.017
rfingers 7.12502
rthumb -164.204 97.6072
lclavicle -5.56597e-015 -3.26007e-014
lhumerus -27.6465 -1.30618 79.4041
lradius 33.5846
lwrist 4.96912
lhand -24.4989 -12.3499
lfingers 7.12502
lthumb 1.99555 17.6205
rfemur -46.2543 7.89826 13.5401
rtibia 45.7115
rfoot -23.4973 -10.0601
rtoes -30.9633
lfemur -41.0743 -4.73724 -23.8593
ltibia 26.2726
lfoot -11.3046 2.93528
ltoes -44.008
332
root 12.1921 18.7456 18.6347 -151.92 3.55256 177.756
lowerback -19.8272 -2.26788 -9.30093
upperback 2.18582 -0.36859 -1.44064
thorax 13.8134 -0.743836 3.5606
lowerneck -3.61673 -2.39288 -0.146266
upperneck 23.0466 -2.4342 4.05872
head 7.72478 -0.182271 1.26237
rclavicle 1.03368e-014 -1.43125e-014
rhumerus -42.906 -18.7975 -72.8705
rradius 30.5738
rwrist 1.499
rhand -10.2259 -412.693
rfingers 7.12502
rthumb -164.234 97.929
lclavicle 1.03368e-014 -1.43125e-014
lhumerus -27.7423 -1.28255 79.4044
lradius 33.7934
lwrist 5.12013
lhand -24.4055 -12.1833
lfingers 7.12502
lthumb 2.08578 17.7862
rfemur -46.2016 8.35257 13.7685
rtibia 45.0444
rfoot -23.6373 -9.86563
rtoes -30.4355
lfemur -40.5536 -4.73808 -23.8316
ltibia 25.824
lfoot -11.2394 2.96848
ltoes -44.5408
333
root 12.1695 18.7646 18.6071 -152.023 3.59662 177.791
lowerback -20.5602 -2.39773 -9.26471
upperback 2.57022 -0.453089 -1.40227
thorax 14.7181 -0.832871 3.53989
lowerneck -3.91557 -2.31103 -0.350503
upperneck 22.8262 -2.40266 4.2525
head 7.70924 -0.192229 1.3569
rclavicle -7.55382e-015 6.36111e-015
rhumerus -42.3146 -19.2892 -72.7947
rradius 30.1994
rwrist 1.75497
rhand -10.2587 -413.091
rfingers 7.12502
rthumb -164.265 97.5288
lclavicle -7.55382e-015 6.36111e-015
lhumerus -26.9751 -0.963121 79.4184
lradius 33.7296
lwrist 5.18011
lhand -24.3721 -12.2104
lfingers 7.12502
lthumb 2.118 17.7589
rfemur -46.1217 8.817 13.8621
rtibia 44.2475
rfoot -23.7129 -9.59384
rtoes -30.1921
lfemur -39.9899 -4.65736 -23.9256
ltibia 25.1752
lfoot -11.0337 2.94493
ltoes -44.8036
334
root 12.1445 18.7766 18.5792 -151.97 3.64876 177.792
lowerback -20.63 -2.50226 -9.26918
upperback 2.35689 -0.593321 -1.37091
thorax 14.5232 -0.881108 3.53638
lowerneck -4.03384 -2.31837 -0.361687
upperneck 23.2336 -2.35901 4.15267
head 7.86454 -0.156512 1.33528
rclavicle 3.18055e-015 5.56597e-015
rhumerus -42.7148 -19.2049 -72.5961
rradius 30.0231
rwrist 1.79521
rhand -10.2918 -413.87
rfingers 7.12502
rthumb -164.297 96.7471
lclavicle 3.18055e-015 5.56597e-015
lhumerus -27.2895 -0.821519 79.4295
lradius 33.8599
lwrist 5.04761
lhand -24.3062 -12.5148
lfingers 7.12502
lthumb 2.18166 17.4538
rfemur -46.1454 9.1687 13.8853
rtibia 43.3705
rfoot -23.7428 -9.17609
rtoes -30.7041
lfemur -39.5374 -4.61008 -24.0607
ltibia 24.3738
lfoot -10.7218 2.95096
ltoes -45.051
335
root 12.1177 18.7918 18.5473 -152.081 3.6519 177.866
lowerback -20.5588 -2.55086 -9.16507
upperback 2.22006 -0.706378 -1.32968
thorax 14.3301 -0.914127 3.49152
lowerneck -4.23732 -2.31612 -0.283284
upperneck 23.6572 -2.29825 3.9632
head 8.0392 -0.113927 1.26971
rclavicle -3.57812e-015 8.74653e-015
rhumerus -43.0595 -19.3052 -72.3131
rradius 29.7827
rwrist 1.92533
rhand -10.313 -413.854
rfingers 7.12502
rthumb -164.318 96.7617
lclavicle -3.57812e-015 8.74653e-015
lhumerus -27.5577 -0.771959 79.4729
lradius 34.0568
lwrist 4.89152
lhand -24.3293 -12.5722
lfingers 7.12502
lthumb 2.15928 17.3966
rfemur -45.8867 9.51702 14.037
rtibia 42.3897
rfoot -23.8515 -8.93809
rtoes -32.131
lfemur -38.9089 -4.72918 -24.0483
ltibia 23.6476
lfoot -10.5139 3.08587
ltoes -45.4057
336
root 12.0952 18.8072 18.5175 -152.122 3.69039 177.923
lowerback -20.6035 -2.5918 -9.09822
upperback 2.08874 -0.77684 -1.32139
thorax 14.2075 -0.930465 3.44278
lowerneck -4.1573 -2.28846 -0.228608
upperneck 23.7534 -2.24391 3.95802
head 8.0551 -0.0744293 1.26556
rclavicle -7.15625e-015 -4.37326e-014
rhumerus -43.4211 -19.6524 -71.9272
rradius 29.5351
rwrist 2.13059
rhand -10.375 -413.141
rfingers 7.12502
rthumb -164.377 97.4697
lclavicle -7.15625e-015 -4.37326e-014
lhumerus -27.6574 -0.929989 79.5323
lradius 34.0303
lwrist 4.81755
lhand -24.4289 -12.6201
lfingers 7.12502
lthumb 2.06314 17.3497
rfemur -45.7317 9.96189 14.0908
rtibia 41.4375
rfoot -24.0399 -8.69528
rtoes -31.8966
lfemur -38.4686 -4.90101 -24.0053
ltibia 23.1456
lfoot -10.4419 3.24803
ltoes -45.5415
